<svg width="198" height="45" viewBox="0 0 198 45" fill="none" xmlns="http://www.w3.org/2000/svg">
<path d="M45.8635 22.9545C45.8635 28.5115 43.8731 33.601 40.5736 37.5551C36.4727 41.9098 30.4214 44.6349 23.0877 44.6349H21.3912C20.5497 44.6349 19.7615 44.4746 19.0535 44.1674C21.0439 43.8201 30.2076 41.7629 33.1865 33.3739C33.1865 33.3739 34.8296 28.0574 33.6674 22.4202C33.6674 22.4202 33.6407 22.3 33.6006 22.0862C33.5873 21.6855 33.5606 21.2847 33.4938 20.884C33.4938 19.655 33.8277 18.012 35.3773 17.0769C35.3773 17.0769 36.5662 16.3556 37.715 16.1285C37.715 16.1285 36.7265 14.5121 32.6255 14.4587C32.6255 14.4587 30.3546 9.08868 22.0324 11.7336C21.9923 11.747 21.9389 11.7603 21.8988 11.7737C21.8988 11.7737 21.8988 11.7737 21.8855 11.7737C21.8855 11.7737 21.8721 11.7737 21.8588 11.7737C21.7385 11.8004 21.2176 11.9473 20.4428 12.4149C20.4428 12.4149 20.4294 12.4282 20.4161 12.4282C18.7062 13.3232 15.6605 15.2602 12.1473 19.0005C9.12837 22.2198 5.7621 26.7616 2.5962 33.1335C1.07336 30.0745 0.205078 26.6147 0.205078 22.9545C0.205078 10.3577 10.4241 0.138672 23.0209 0.138672C23.2213 0.138672 23.4217 0.138672 23.6087 0.138672C35.965 0.459269 45.8635 10.5581 45.8635 22.9545Z" fill="white"/>
<path d="M19.3319 34.7897C18.5838 35.0702 17.7556 35.3107 16.8205 35.4442C16.7003 35.4576 16.5667 35.4843 16.4331 35.4977C15.5114 35.6179 14.4962 35.658 13.3874 35.5912C13.2138 35.5778 13.0401 35.5645 12.8665 35.5511C12.8665 35.5511 12.5592 32.6791 13.3874 29.7136C13.6145 28.8987 13.9084 28.0839 14.3359 27.3224C14.937 26.2271 15.7786 25.2252 16.9407 24.5172C17.5151 24.1699 18.2632 24.2634 18.7307 24.7443L20.1734 26.2671L23.6198 29.8872C24.1275 30.4216 24.1408 31.2364 23.6733 31.7975C23.5263 31.9711 23.3527 32.1581 23.1523 32.3585C22.3375 33.1733 21.0951 34.1351 19.3319 34.7897Z" fill="white"/>
<path d="M26.8136 16.7027C26.2793 16.7027 25.8385 16.2619 25.8385 15.7276C25.8385 15.1799 26.2793 14.7524 26.8136 14.7524C27.3613 14.7524 27.7888 15.1933 27.7888 15.7276C27.8021 16.2619 27.3613 16.7027 26.8136 16.7027Z" fill="white"/>
<path d="M57.9414 9.9838C57.9414 8.62126 59.0902 7.52588 60.4394 7.52588H67.3055C72.9026 7.52588 76.6429 11.52 76.6429 16.4358C76.6429 21.3116 72.916 25.3057 67.3055 25.3057H66.6243C65.3151 25.3057 64.2866 24.2905 64.2866 23.0214C64.2866 21.7123 65.3018 20.6837 66.6243 20.6837H67.1319C69.6833 20.6837 71.5 18.7735 71.5 16.4358C71.5 14.0581 69.6699 12.1478 67.1319 12.1478H62.9374V35.0973C62.9374 36.4598 61.7886 37.5952 60.4394 37.5952C59.0902 37.5952 57.9414 36.4464 57.9414 35.0973V9.9838Z" fill="white"/>
<path d="M96.2122 35.0038C94.342 36.6602 91.8841 37.6354 89.1724 37.6354C83.0677 37.6354 78.4457 32.6661 78.4457 26.3878C78.4457 20.1094 83.0677 15.1401 89.1724 15.1401C91.8841 15.1401 94.342 16.1153 96.2122 17.8118V17.5179C96.2122 16.2088 97.2274 15.1802 98.5499 15.1802C99.8723 15.1802 100.888 16.1954 100.888 17.5179V35.2042C100.888 36.5133 99.8723 37.582 98.5499 37.582C97.2274 37.582 96.2122 36.5267 96.2122 35.2042V35.0038ZM96.2122 26.4011V26.1072C96.0385 22.3269 93.2467 19.4949 89.68 19.4949C86.0332 19.4949 83.1478 22.4604 83.1478 26.4145C83.1478 30.3552 86.0332 33.334 89.68 33.334C93.3268 33.3073 96.2122 30.3418 96.2122 26.4011Z" fill="white"/>
<path d="M106.313 9.47636C106.313 8.16726 107.328 7.13867 108.651 7.13867C109.973 7.13867 110.989 8.1539 110.989 9.47636V35.231C110.989 36.5401 109.973 37.6088 108.651 37.6088C107.328 37.6088 106.313 36.5535 106.313 35.231V9.47636Z" fill="white"/>
<path d="M115.516 26.4014C115.516 20.1231 120.311 15.1538 126.763 15.1538C133.255 15.1538 138.011 20.1231 138.011 26.4014C138.011 32.6798 133.255 37.6491 126.763 37.6491C120.311 37.6357 115.516 32.6798 115.516 26.4014ZM133.282 26.4014C133.282 22.581 130.477 19.4819 126.75 19.4819C123.023 19.4819 120.218 22.581 120.218 26.4014C120.218 30.1818 123.023 33.321 126.75 33.321C130.49 33.3076 133.282 30.1685 133.282 26.4014Z" fill="white"/>
<path d="M142.538 23.6895C142.538 18.3863 146.105 15.167 150.593 15.167C153.185 15.167 155.349 16.062 156.738 18.3062C158.047 16.062 160.345 15.167 162.843 15.167C167.344 15.167 170.898 18.3863 170.898 23.6895V35.2311C170.898 36.5402 169.883 37.6088 168.56 37.6088C167.251 37.6088 166.222 36.5535 166.222 35.2311V23.6361C166.222 20.8309 164.659 19.4817 162.616 19.4817C160.625 19.4817 159.049 20.8442 159.049 23.6361V35.2177C159.049 36.5268 157.994 37.5955 156.711 37.5955C155.402 37.5955 154.374 36.5402 154.374 35.2177V23.6361C154.374 20.8309 152.757 19.4817 150.767 19.4817C148.777 19.4817 147.16 20.8442 147.16 23.6361V35.2177C147.16 36.5268 146.145 37.5955 144.823 37.5955C143.513 37.5955 142.485 36.5402 142.485 35.2177V23.6895H142.538Z" fill="white"/>
<path d="M175.455 26.4014C175.455 20.1231 180.251 15.1538 186.703 15.1538C193.195 15.1538 197.951 20.1231 197.951 26.4014C197.951 32.6798 193.195 37.6491 186.703 37.6491C180.251 37.6357 175.455 32.6798 175.455 26.4014ZM193.235 26.4014C193.235 22.581 190.43 19.4819 186.703 19.4819C182.976 19.4819 180.171 22.581 180.171 26.4014C180.171 30.1818 182.976 33.321 186.703 33.321C190.43 33.3076 193.235 30.1685 193.235 26.4014Z" fill="white"/>
</svg>