<svg width="16" height="15" viewBox="0 0 16 15" fill="none" xmlns="http://www.w3.org/2000/svg">
<path d="M15.0128 7.85906C15.0128 9.60025 14.3918 11.2014 13.3568 12.4434C12.0722 13.8071 10.1728 14.6655 7.87146 14.6655H7.33571C7.07392 14.6655 6.82431 14.6108 6.59905 14.5194C7.22612 14.4098 10.0997 13.7645 11.0312 11.1344C11.0312 11.1344 11.5487 9.46631 11.1834 7.69468C11.1834 7.69468 11.1712 7.65815 11.159 7.59118C11.159 7.46333 11.1469 7.33548 11.1286 7.21372C11.1286 6.83017 11.2321 6.31268 11.7191 6.02045C11.7191 6.02045 12.0905 5.79519 12.4558 5.72214C12.4558 5.72214 12.1453 5.21683 10.8546 5.19856C10.8546 5.19856 10.1423 3.51216 7.53053 4.34014C7.51835 4.34014 7.50009 4.34623 7.48791 4.35232C7.48791 4.35232 7.48791 4.35232 7.48182 4.35232C7.4453 4.36449 7.28092 4.40711 7.03739 4.55323C7.03739 4.55323 7.03739 4.55323 7.03131 4.55323C6.49555 4.83328 5.53972 5.44209 4.43778 6.61709C3.49412 7.62771 2.4348 9.05232 1.44244 11.0492C0.961479 10.0873 0.693604 9.00362 0.693604 7.85906C0.693604 3.90789 3.89594 0.699463 7.8532 0.699463C7.91408 0.699463 7.97496 0.699463 8.03584 0.699463C11.9079 0.796872 15.0128 3.96268 15.0128 7.85906Z" fill="url(#paint0_linear_21_6817)"/>
<path d="M6.68446 11.5671C6.45311 11.6584 6.19132 11.7314 5.893 11.7741C5.85647 11.7741 5.81386 11.7862 5.77124 11.7923C5.4851 11.8289 5.16243 11.841 4.81541 11.8228C4.76062 11.8228 4.70583 11.8167 4.65103 11.8106C4.65103 11.8106 4.55362 10.9096 4.81541 9.97807C4.88238 9.72238 4.97979 9.46668 5.11373 9.22924C5.30246 8.88222 5.57033 8.57173 5.93562 8.34647C6.11826 8.23688 6.34961 8.26732 6.49572 8.41952L6.94624 8.89439L8.02384 10.0329C8.18213 10.1972 8.18821 10.459 8.0421 10.6295C7.99339 10.6843 7.9386 10.7452 7.87772 10.8061C7.62202 11.0618 7.23238 11.3601 6.67837 11.5671H6.68446Z" fill="url(#paint1_linear_21_6817)"/>
<path d="M9.03437 5.89273C8.8639 5.89273 8.72388 5.7527 8.72388 5.58832C8.72388 5.42395 8.8639 5.27783 9.03437 5.27783C9.20484 5.27783 9.34486 5.41786 9.34486 5.58832C9.34486 5.75879 9.20484 5.89273 9.03437 5.89273Z" fill="url(#paint2_linear_21_6817)"/>
<defs>
<linearGradient id="paint0_linear_21_6817" x1="7.8532" y1="0.699463" x2="7.8532" y2="14.6595" gradientUnits="userSpaceOnUse">
<stop stop-color="#8D775D"/>
<stop offset="1" stop-color="#5D4530"/>
</linearGradient>
<linearGradient id="paint1_linear_21_6817" x1="6.39832" y1="8.28559" x2="6.39832" y2="11.8349" gradientUnits="userSpaceOnUse">
<stop stop-color="#8D775D"/>
<stop offset="1" stop-color="#5D4530"/>
</linearGradient>
<linearGradient id="paint2_linear_21_6817" x1="9.03437" y1="5.27783" x2="9.03437" y2="5.89273" gradientUnits="userSpaceOnUse">
<stop stop-color="#8D775D"/>
<stop offset="1" stop-color="#5D4530"/>
</linearGradient>
</defs>
</svg>
