<svg width="46" height="45" viewBox="0 0 46 45" fill="none" xmlns="http://www.w3.org/2000/svg">
<path d="M45.8635 22.9545C45.8635 28.5115 43.8731 33.601 40.5736 37.5551C36.4727 41.9098 30.4214 44.6349 23.0877 44.6349H21.3912C20.5497 44.6349 19.7615 44.4746 19.0535 44.1674C21.0439 43.8201 30.2076 41.7629 33.1865 33.3739C33.1865 33.3739 34.8296 28.0574 33.6674 22.4202C33.6674 22.4202 33.6407 22.3 33.6006 22.0862C33.5873 21.6855 33.5606 21.2847 33.4938 20.884C33.4938 19.655 33.8277 18.012 35.3773 17.0769C35.3773 17.0769 36.5662 16.3556 37.715 16.1285C37.715 16.1285 36.7265 14.5121 32.6255 14.4587C32.6255 14.4587 30.3546 9.08868 22.0324 11.7336C21.9923 11.747 21.9389 11.7603 21.8988 11.7737C21.8988 11.7737 21.8988 11.7737 21.8855 11.7737C21.8855 11.7737 21.8721 11.7737 21.8588 11.7737C21.7385 11.8004 21.2176 11.9473 20.4428 12.4149C20.4428 12.4149 20.4294 12.4282 20.4161 12.4282C18.7062 13.3232 15.6605 15.2602 12.1473 19.0005C9.12837 22.2198 5.7621 26.7616 2.5962 33.1335C1.07336 30.0745 0.205078 26.6147 0.205078 22.9545C0.205078 10.3577 10.4241 0.138672 23.0209 0.138672C23.2213 0.138672 23.4217 0.138672 23.6087 0.138672C35.965 0.459269 45.8635 10.5581 45.8635 22.9545Z" fill="white"/>
<path d="M19.3319 34.7897C18.5838 35.0702 17.7556 35.3107 16.8205 35.4442C16.7003 35.4576 16.5667 35.4843 16.4331 35.4977C15.5114 35.6179 14.4962 35.658 13.3874 35.5912C13.2138 35.5778 13.0401 35.5645 12.8665 35.5511C12.8665 35.5511 12.5592 32.6791 13.3874 29.7136C13.6145 28.8987 13.9084 28.0839 14.3359 27.3224C14.937 26.2271 15.7786 25.2252 16.9407 24.5172C17.5151 24.1699 18.2632 24.2634 18.7307 24.7443L20.1734 26.2671L23.6198 29.8872C24.1275 30.4216 24.1408 31.2364 23.6733 31.7975C23.5263 31.9711 23.3527 32.1581 23.1523 32.3585C22.3375 33.1733 21.0951 34.1351 19.3319 34.7897Z" fill="white"/>
<path d="M26.8136 16.7027C26.2793 16.7027 25.8385 16.2619 25.8385 15.7276C25.8385 15.1799 26.2793 14.7524 26.8136 14.7524C27.3613 14.7524 27.7888 15.1933 27.7888 15.7276C27.8021 16.2619 27.3613 16.7027 26.8136 16.7027Z" fill="white"/>
</svg>